<svg viewBox="0 0 800 800" xmlns="http://www.w3.org/2000/svg" id="Laag_1"><defs><style>.cls-1{fill:#eae3da;}</style></defs><polygon points="287.55 423.51 288.4 422.39 287.27 422.39 287.55 423.51" class="cls-1"></polygon><path d="M280.92,369.41c1.49,9.84,1.37,18.14,1.87,27.93.07,1.43-.58,9.88.82,9.85,1.42-1.33,2.91-2.9,3.76-4.67,5.96-12.51,2.68-37.67-7.69-47.6-2.51-.05,1.01,12.97,1.24,14.49Z" class="cls-1"></path><path d="M297.11,389.21v-.56c-.36.19-.36.37,0,.56Z" class="cls-1"></path><rect height="1.12" width=".55" y="383.59" x="281.09" class="cls-1"></rect><polygon points="287.28 429.13 288.38 428.29 287.55 427.45 287.28 429.13" class="cls-1"></polygon><path d="M291.66,157.93l-15.35-22.87c-.8-.07-.89,3.67-.85,4.17.63,7.95,5.06,12.06,7.59,18.88,1.42,3.82,1.59,7.61,2.83,11.22,1.31,3.82,4.32,7.78,5.76,11.67,2.82,7.61,2.43,14.28,8.27,20.97,2.34,2.68,10.26,10.32,13.14,5.78.5-2.06-8.57-19.75-9.9-23.65-3.29-9.68-6.1-17.24-11.5-26.17Z" class="cls-1"></path><path d="M255.72,308.97c.73-2.92-10.73-7.87-13.44-6.35-1.43,2.04,7.48,6.91,9.15,7.43,1.44.45,3.79.93,4.29-1.08Z" class="cls-1"></path><path d="M297.67,401.58v-.56c-.37.19-.37.37,0,.56Z" class="cls-1"></path><rect height="1.12" width=".55" y="389.78" x="279.4" class="cls-1"></rect><path d="M304.98,422.95v-.56c-.37.19-.37.37,0,.56Z" class="cls-1"></path><path d="M299.34,345.37c-1.4-1.26-1.38-3.64-4.41-2.78l-.69,1.11,10.2,21.88c1.25,6.77,4.53,13.07,6.47,19.69,2.37-.26,2.03-4.31,2-6.36-.2-12.86-3.95-24.89-13.56-33.54Z" class="cls-1"></path><path d="M304.98,208.71c-.37.19-.37.38,0,.56v-.56Z" class="cls-1"></path><path d="M256.93,366.74l-1.16,13.18-6.15,28.17.88,1.33c2.86.81,6.63-6.07,7.38-8.28,3.24-9.49,4.65-18.76,3.37-28.93-.34-2.69-.92-6.06-4.31-5.48Z" class="cls-1"></path><path d="M263.94,325.67v-.56c-.37.19-.37.37,0,.56Z" class="cls-1"></path><path d="M261.12,428.57c-.37.19-.37.37,0,.56v-.56Z" class="cls-1"></path><rect height=".55" width="1.12" y="353.23" x="253.54" class="cls-1"></rect><path d="M260.29,438.69c1.12-.3,1.26-1.2,1.11-2.25-1.12.3-1.26,1.2-1.11,2.25Z" class="cls-1"></path><path d="M275.18,411.14v-.56c-.36.19-.36.37,0,.56Z" class="cls-1"></path><path d="M267.03,402.14c.21.27,1.49-.98,1.11-1.69-.21-.27-1.49.98-1.11,1.69Z" class="cls-1"></path><rect height=".55" width="1.12" y="322.86" x="271.53" class="cls-1"></rect><rect height="1.12" width="1.12" y="415.64" x="276.59" class="cls-1"></rect><path d="M272.37,409.45v-.56c-.37.19-.37.37,0,.56Z" class="cls-1"></path><rect height=".55" width="1.12" y="371.22" x="268.16" class="cls-1"></rect><polygon points="306.96 245.83 307.23 246.94 308.08 245.83 306.96 245.83" class="cls-1"></polygon><rect height="1.12" width=".55" y="319.49" x="344.63" class="cls-1"></rect><rect height="1.12" width=".55" y="293.62" x="368.25" class="cls-1"></rect><path d="M330.62,344.85c-.9,1.46,2.52,11.55,3.31,13.73,3.2,8.88,6.54,17.78,9.88,26.69.96,2.56,2.22.16,2.47-1.43,1.44-9.23-4.47-25.34-9.4-33.27-.71-1.14-4.91-7.9-6.26-5.72Z" class="cls-1"></path><path d="M325.79,403.83v-.56c-.37.19-.37.37,0,.56Z" class="cls-1"></path><rect height=".55" width="1.12" y="310.49" x="327.76" class="cls-1"></rect><path d="M336.47,414.51v-.56c-.37.19-.37.37,0,.56Z" class="cls-1"></path><path d="M350.53,348.73v-.56c-.37.19-.37.38,0,.56Z" class="cls-1"></path><path d="M367.68,316.11c-.12,1.78-.08,3.17.44,4.91.49,1.64,5.58,10.17,6.85,12.26,1.72,2.83,3.99,5.95,5.92,8.69,2.97-4.07-1.12-11.67-3.36-15.74-.98-1.78-7.35-12.56-9.85-10.11Z" class="cls-1"></path><path d="M387.08,317.8v-.56c-.36.19-.36.37,0,.56Z" class="cls-1"></path><rect height=".55" width="1.12" y="394.84" x="363.19" class="cls-1"></rect><path d="M354.47,331.3c-2.86,4.03.67,6.9,2.26,10.1,2.94,5.91,6.04,10.73,9.01,16.29.94,1.77,5.6,13.48,6.72,13.51.82-.53.77-1.08.87-1.93,1-8.81-7.16-27.51-13.5-33.79-1.44-1.43-3.87-2.69-5.37-4.18Z" class="cls-1"></path><path d="M331.7,280.4c-4.38-3.83-10.88-8.35-16.87-8.14-.16.87.09,1.3.53,1.99,2.04,3.15,9.28,8.13,12.41,11.21,4.53,4.46,9.59,12.2,14.03,15.77,1.85,1.49,8.05,5.63,6.51.25-1.19-4.17-12.97-17.9-16.61-21.08Z" class="cls-1"></path><path d="M354.47,232.89v-.56c-.37.19-.37.37,0,.56Z" class="cls-1"></path><path d="M321.29,192.97v-.56c-.37.19-.37.37,0,.56Z" class="cls-1"></path><path d="M337.88,239.35l-4.67-4.59c-2.21-1.69-12.9-3.03-13.32-1.01,3.82,5.17,11.79,9.53,17.99,5.61Z" class="cls-1"></path><path d="M358.4,295.87v-.56c-.37.19-.37.37,0,.56Z" class="cls-1"></path><path d="M356.15,266.63v-.56c-.37.19-.37.38,0,.56Z" class="cls-1"></path><path d="M322.42,403.83v-.56c-.36.19-.36.37,0,.56Z" class="cls-1"></path><rect height=".55" width="1.12" y="340.86" x="322.7" class="cls-1"></rect><path d="M324.66,410.02v-.56c-.37.19-.37.38,0,.56Z" class="cls-1"></path><rect height="1.12" width="1.12" y="322.3" x="317.64" class="cls-1"></rect><path d="M330.75,259.98c2.31,1.59,6.15,5.62,8.04,6.58.97.5,7.67,1.55,8.08,1.19,1.37-1.21-8.35-8.8-9.27-9.56-3.53-2.93-5.96-5.5-10.59-7.41-1.53-.63-8.91-3.09-9.38-.73-.52,2.61,10.83,8.35,13.12,9.93Z" class="cls-1"></path><polygon points="317.64 397.64 318.76 397.64 317.91 396.52 317.64 397.64" class="cls-1"></polygon><path d="M263.94,262.13v-.56c-.37.19-.37.38,0,.56Z" class="cls-1"></path><path d="M263.37,249.76v-.56c-.37.19-.37.37,0,.56Z" class="cls-1"></path><path d="M262.25,280.69v-.56c-.37.19-.37.37,0,.56Z" class="cls-1"></path><path d="M286.99,348.73v-.56c-.36.19-.36.38,0,.56Z" class="cls-1"></path><path d="M263.94,208.71v-.56c-.37.19-.37.37,0,.56Z" class="cls-1"></path><path d="M276.87,294.18v-.56c-.37.19-.37.37,0,.56Z" class="cls-1"></path><path d="M410.97,317.24v.56c.37-.19.37-.37,0-.56Z" class="cls-1"></path><path d="M248.75,202.53v-.56c-.37.19-.37.37,0,.56Z" class="cls-1"></path><path d="M251,285.75v-.56c-.36.19-.36.37,0,.56Z" class="cls-1"></path><rect transform="translate(-116 263.9) rotate(-45)" height="1.18" width="1.18" y="271.38" x="259.97" class="cls-1"></rect><path d="M255.81,297.8c3.23,3.03,17.7,11.81,21.88,12.98.95.27,1.85.36,2.82.26.29-2.09-1.07-3.77-2.26-5.33-4.33-5.68-15.27-11.24-22.37-11.41-3.01-.07-1.48,2.18-.07,3.5Z" class="cls-1"></path><rect height=".55" width="1.12" y="247.52" x="253.54" class="cls-1"></rect><path d="M283.62,225.02c-.37.19-.37.37,0,.56v-.56Z" class="cls-1"></path><path d="M302.73,209.27c-.37.19-.37.37,0,.56v-.56Z" class="cls-1"></path><path d="M266.75,194.09v-.56c-.37.19-.37.37,0,.56Z" class="cls-1"></path><path d="M270.68,270.56v-.56c-.36.19-.36.37,0,.56Z" class="cls-1"></path><path d="M135.73,312.74v-.56c-.36.19-.36.37,0,.56Z" class="cls-1"></path><path d="M276.87,233.45c-.37.19-.37.37,0,.56v-.56Z" class="cls-1"></path><path d="M286.32,295.98c3.83,2.3,10.35,9.16,13.35,10.27,6.48,2.4.95-4.73-.6-6.71-6.54-8.33-19.57-15.98-30.23-17-1.67-.16-3.94-.78-5.17.68,5.61,7.56,15.08,8.2,22.65,12.76Z" class="cls-1"></path><path d="M277.15,273.1l.91,1.89c4.56,1.61,8.6,4.53,13.28,5.84,1.55.44,6.37,2.03,7.17.13l-.12-1.3c-1.16-.21-1.32-1.48-2.13-2.05-2.27-1.6-18.05-8.13-19.11-4.51Z" class="cls-1"></path><rect height="1.12" width=".55" y="255.95" x="292.34" class="cls-1"></rect><polygon points="288.96 241.33 288.4 243.01 289.52 243.01 289.51 241.33 288.96 241.33" class="cls-1"></polygon><polygon points="279.4 243.01 278.27 243.02 279.39 244.14 279.4 243.01" class="cls-1"></polygon><rect height="1.12" width=".55" y="185.1" x="242.85" class="cls-1"></rect><path d="M239.19,414.51v-.56c-.37.19-.37.37,0,.56Z" class="cls-1"></path><path d="M168.34,308.8v-.56c-.37.19-.37.37,0,.56Z" class="cls-1"></path><path d="M189.15,280.12c.36-.77.51-1.5.04-2.28-.98-1-1.93-.45-2.97-.09-3.99,1.35-12.15,6.43-15.75,9-1.49,1.07-8.25,6.55-8.47,7.8-.11.64.5,1.24.45,1.88.47.35,7-3.37,8.06-4.03,1.15-.71,1.85-1.91,3-2.63,2.38-1.49,15-8.24,15.65-9.66Z" class="cls-1"></path><path d="M166.66,336.92v-.56c-.37.19-.37.37,0,.56Z" class="cls-1"></path><path d="M145.15,317.93c-3.67,3.65,6.09,11.27,11.7,9.73,9.69-2.66-8.14-13.27-11.7-9.73Z" class="cls-1"></path><rect height="1.12" width=".55" y="350.98" x="211.93" class="cls-1"></rect><path d="M223.52,324.05c-.15-.35-.3-.72-.7-.72-.77,0-1.78,1.19-2.31,1.67-1.02.92-1.9,1.95-2.95,2.84-1.21,1.02-2.61,2.05-4.01,2.77-1.94,1-3.76,2.14-5.78,3.01-1.04.45-2.1.82-3.15,1.23-1.1.43-2,1.03-3.17,1.37-2.21.66-4.43,1.35-6.67,1.93-2,.52-4.05.77-6.11.87-1.01.05-2.03.02-3.04.07-1.51.09-3.09.94-4.54,1.37-.53.16-6.27,1.49-6.27,1.5.07,6.24,10.01,2.13,13.16,2.25,1.06.04,2.13.04,3.18-.11.82-.12,1.56-.69,2.38-.73.17,0,.33.05.5.08.57.08,1.23.02,1.8-.07.48-.08.96-.12,1.44-.11.77,0,1.58-.16,2.33-.31.59-.12,1.15-.23,1.72-.41.39-.12.87.06,1.22-.19.18-.13.24-.22.47-.28.25-.07.5-.13.75-.17,1.29-.22,2.56-.49,3.79-.93,1.46-.52,2.67-1.39,3.91-2.29,2.56-1.86,5.37-3.08,8.2-4.51,1.12-.56,1.7-1.29,2.36-2.28.26-.38.54-.74.85-1.07.48-.5.86-1.1,1.39-1.55.21-.18.64-.32.79-.54.39-.58-.33-1.56-.53-2.11-.31-.84-.65-1.75-1.02-2.57Z" class="cls-1"></path><path d="M228.02,252.5c-.8-.2-1.81-.16-2.55-.5-.72-.33-1.45-.69-2.14-1.1-1.05-.62-2.21-.98-3.25-1.65-1.19-.76-2.32-1.11-3.73-1.08-1.83.05-3.38.69-4.83,1.79-.52.39-.77.74-1.14,1.24-.48.64-1.06,1.22-1.53,1.87-.51.7-.43,1.56-.57,2.37-.06.32-.1.61-.08.94.13,2.03.5,3.96.34,6.02-.21,2.68-3.15,11.66-1.99,13.26,9.6,1.45,22.23,6.32,29.49-2.68.71-2.68-5.08-3.04-6.89-3.5-1.49.45-.05,4.38-5.69,4.5-7.99.17-8.89-6.85-8.15-13.26,1.32-11.5,14.6-.5,19.09,1.71,4.66,2.29,9.88.11,6.01-4.04-2.73-2.93-8.54-4.93-12.38-5.89Z" class="cls-1"></path><rect height=".55" width="1.12" y="308.81" x="235.54" class="cls-1"></rect><path d="M234.13,379.09v-.56c-.37.19-.37.37,0,.56Z" class="cls-1"></path><rect height=".55" width="1.12" y="334.67" x="155.13" class="cls-1"></rect><path d="M207.14,328.48c-.37.19-.37.38,0,.56v-.56Z" class="cls-1"></path><polygon points="236.1 144.88 236.1 144.05 234.98 144.05 235.26 145.73 236.1 144.88" class="cls-1"></polygon><path d="M236.38,223.89v-.56c-.37.19-.37.37,0,.56Z" class="cls-1"></path><path d="M207.14,219.96c5.51-4.54,9.7-11.48,14.89-16.03,5.23-4.58,13.87-7.62,18.28-13.2,1.43-1.81.14-2.61-1.79-2.67-1.44-.04-7.55,4.13-9.13,5.24-7.33,5.15-12.65,10.79-18.02,17.96-.85,1.14-6.92,9.07-6.2,9.82,1.06.24,1.33-.6,1.97-1.12Z" class="cls-1"></path><path d="M236.94,214.33v-.56c-.37.19-.37.37,0,.56Z" class="cls-1"></path><path d="M193.08,335.23v-.56c-.36.19-.36.37,0,.56Z" class="cls-1"></path><path d="M231.88,178.91v-.56c-.37.19-.37.37,0,.56Z" class="cls-1"></path><rect height=".55" width="1.12" y="162.04" x="232.73" class="cls-1"></rect><rect height=".55" width="1.12" y="326.24" x="205.74" class="cls-1"></rect><rect height=".55" width="1.12" y="239.08" x="205.18" class="cls-1"></rect><path d="M224.57,212.65v-.56c-.37.19-.37.37,0,.56Z" class="cls-1"></path><rect height=".55" width="1.12" y="241.33" x="234.98" class="cls-1"></rect><path d="M161.03,326.23v-.56c-.36.19-.36.37,0,.56Z" class="cls-1"></path><rect height="1.12" width=".55" y="383.59" x="516.41" class="cls-1"></rect><rect height="1.12" width=".55" y="389.78" x="518.09" class="cls-1"></rect><polygon points="510.5 423.51 510.78 422.39 509.65 422.39 510.5 423.51" class="cls-1"></polygon><polygon points="509.67 428.29 510.77 429.13 510.5 427.45 509.67 428.29" class="cls-1"></polygon><path d="M498.71,345.37c-9.61,8.66-13.37,20.69-13.56,33.54-.03,2.04-.37,6.1,2,6.36,1.94-6.62,5.22-12.92,6.47-19.69l10.2-21.88-.69-1.11c-3.03-.86-3.01,1.52-4.41,2.78Z" class="cls-1"></path><rect height=".55" width="1.12" y="322.86" x="525.4" class="cls-1"></rect><path d="M518.37,354.92c-10.37,9.93-13.65,35.09-7.69,47.6.84,1.77,2.34,3.34,3.75,4.67,1.4.03.75-8.42.82-9.85.51-9.79.38-18.09,1.87-27.93.23-1.52,3.75-14.54,1.24-14.49Z" class="cls-1"></path><path d="M525.68,408.89v.56c.36-.19.36-.37,0-.56Z" class="cls-1"></path><path d="M500.94,388.65v.56c.37-.19.37-.37,0-.56Z" class="cls-1"></path><rect height=".55" width="1.12" y="371.22" x="528.78" class="cls-1"></rect><path d="M522.87,410.58v.56c.37-.19.37-.38,0-.56Z" class="cls-1"></path><rect height="1.12" width="1.12" y="415.64" x="520.34" class="cls-1"></rect><polygon points="518.65 243.01 518.66 244.14 519.78 243.02 518.65 243.01" class="cls-1"></polygon><path d="M514.43,225.02v.56c.37-.19.37-.37,0-.56Z" class="cls-1"></path><path d="M500.38,401.02v.56c.36-.19.36-.38,0-.56Z" class="cls-1"></path><rect height="1.12" width=".55" y="255.95" x="505.16" class="cls-1"></rect><path d="M499.66,279.67l-.12,1.3c.79,1.9,5.62.31,7.17-.13,4.68-1.31,8.72-4.23,13.28-5.84l.91-1.89c-1.05-3.62-16.84,2.91-19.11,4.51-.81.57-.97,1.84-2.13,2.05Z" class="cls-1"></path><polygon points="508.54 241.33 508.53 243.01 509.65 243.01 509.09 241.33 508.54 241.33" class="cls-1"></polygon><path d="M493.07,422.39v.56c.37-.19.37-.37,0-.56Z" class="cls-1"></path><polygon points="491.1 245.83 489.97 245.83 490.82 246.94 491.1 245.83" class="cls-1"></polygon><path d="M521.18,233.45v.56c.36-.19.36-.37,0-.56Z" class="cls-1"></path><path d="M493.07,209.27c.37-.19.37-.37,0-.56v.56Z" class="cls-1"></path><path d="M498.13,201.97c5.85-6.69,5.45-13.36,8.27-20.97,1.44-3.88,4.45-7.85,5.76-11.67,1.24-3.61,1.42-7.41,2.83-11.22,2.54-6.82,6.96-10.94,7.59-18.88.04-.5-.05-4.24-.85-4.17l-15.35,22.87c-5.4,8.93-8.21,16.5-11.5,26.17-1.33,3.9-10.39,21.59-9.9,23.65,2.88,4.53,10.8-3.11,13.14-5.78Z" class="cls-1"></path><path d="M495.32,209.27v.56c.37-.19.37-.37,0-.56Z" class="cls-1"></path><path d="M631.39,336.35v.56c.37-.19.37-.38,0-.56Z" class="cls-1"></path><path d="M590.91,329.04c.37-.19.37-.37,0-.56v.56Z" class="cls-1"></path><path d="M612.42,339.12c-1.01-.06-2.03-.02-3.04-.07-2.06-.1-4.12-.35-6.11-.87-2.23-.58-4.45-1.28-6.67-1.93-1.17-.35-2.06-.94-3.17-1.37-1.05-.41-2.11-.79-3.15-1.23-2.02-.86-3.84-2.01-5.78-3.01-1.41-.72-2.81-1.75-4.01-2.77-1.05-.89-1.93-1.92-2.95-2.84-.52-.47-1.54-1.67-2.31-1.67-.4,0-.54.37-.7.72-.36.82-.71,1.73-1.02,2.57-.2.55-.92,1.53-.53,2.11.15.22.58.37.79.54.53.45.91,1.05,1.39,1.55.32.34.6.69.85,1.07.66.98,1.24,1.71,2.36,2.28,2.83,1.42,5.64,2.65,8.2,4.51,1.25.91,2.45,1.77,3.92,2.29,1.23.44,2.5.71,3.79.93.25.04.5.1.75.17.23.07.3.15.47.28.35.26.83.07,1.22.19.57.18,1.13.29,1.72.41.75.15,1.57.32,2.33.31.49,0,.96.03,1.44.11.57.09,1.22.15,1.8.07.17-.02.33-.08.5-.08.82.04,1.56.62,2.38.73,1.05.15,2.12.15,3.18.11,3.15-.12,13.09,3.99,13.16-2.25,0,0-5.74-1.34-6.27-1.5-1.45-.43-3.04-1.29-4.54-1.37Z" class="cls-1"></path><rect height="1.12" width=".55" y="350.98" x="585.57" class="cls-1"></rect><path d="M529.9,400.46c-.37.7.9,1.96,1.11,1.69.37-.7-.9-1.96-1.11-1.69Z" class="cls-1"></path><path d="M629.71,308.24v.56c.36-.19.36-.37,0-.56Z" class="cls-1"></path><path d="M662.32,312.17v.56c.37-.19.37-.38,0-.56Z" class="cls-1"></path><path d="M677.3,304.08c-2.32-5.22-5.44-7.27-7.71-8.77-.64-.42-1.19-.79-1.75-1.23-6.41-5.17-13.35-10.05-20.06-14.77-8.57-6.03-17.43-12.26-24.93-18.94-4.27-3.81-4.12-7.96-3.41-16.22.34-3.98.73-8.48.19-13.12-1.31-11.65-18.92-33.37-22.09-36.87-.88-.97-2.09-2.05-3.99-3.73-1.01-.89-2.76-2.43-3.99-3.63.28-2.43.72-4.94,1.17-7.56.49-2.86,1.01-5.82,1.33-8.8l.64-5.61c1.14-9.99,2.43-21.32,2.79-30.96.18-4.43.47-11.85-4.31-16.83-2.44-2.54-5.67-3.88-9.35-3.88-.66,0-1.34.05-2.05.14-6.07.8-10.68,6.14-16.08,13.03-.76.97-1.42,1.83-1.95,2.43-2.03,2.31-4.16,4.62-6.41,7.06-3.59,3.9-7.26,7.88-10.68,12.04-.76-7.93-1.82-15.97-4.03-23.83-3.94-13.97-12.38-15.48-15.82-15.48s-6.87,1.31-10.15,3.91c-10.51,8.34-21.8,23.91-30.87,36.42-2.26,3.12-4.39,6.06-6.34,8.64-2.29,3.05-4.58,6.26-7,9.67-7.46,10.51-15.92,22.42-24.74,28.79-2.13,1.54-4.48,2.93-6.97,4.39-1.91,1.12-3.89,2.29-5.86,3.58-.13.09-.35.22-.62.39-7.36,4.57-13.92,9.25-13.37,16.2.2,2.49,1.33,4.71,3.14,6.34-1.02.68-2.04,1.4-3.05,2.16-6.5,4.86-14.53,11.56-15.91,15.86-1.7,5.34-.25,8.94,1.27,11.02.57.78,1.36,1.63,2.41,2.37-2.59,2.18-5.14,4.48-7.38,7.07-.11.13-.23.26-.34.4-.12-.14-.24-.28-.36-.42-2.24-2.59-4.79-4.88-7.37-7.05,1.05-.74,1.83-1.58,2.41-2.36,1.52-2.08,2.97-5.68,1.26-11.05-1.38-4.28-9.41-10.98-15.88-15.82-1.02-.77-2.04-1.49-3.06-2.17,1.83-1.64,2.96-3.85,3.15-6.33.55-6.93-5.98-11.6-13.31-16.17-.28-.18-.51-.31-.68-.43-1.97-1.29-3.93-2.44-5.84-3.56-2.5-1.47-4.87-2.86-7.02-4.41-8.78-6.35-17.23-18.24-24.68-28.72-2.44-3.43-4.74-6.67-7.05-9.73-1.91-2.55-4.01-5.45-6.24-8.52-9.1-12.56-20.42-28.18-30.97-36.56-3.27-2.58-6.69-3.89-10.14-3.89s-11.87,1.51-15.81,15.48c-2.22,7.86-3.28,15.9-4.04,23.84-3.42-4.15-7.08-8.13-10.66-12.02-2.26-2.45-4.4-4.77-6.45-7.1-.52-.59-1.18-1.45-1.95-2.42-5.39-6.89-9.99-12.22-16.07-13.03-.69-.09-1.37-.13-2.03-.13-3.68,0-6.91,1.34-9.34,3.86-4.76,4.94-4.49,12.36-4.33,16.83.37,9.74,1.67,21.14,2.82,31.21l.61,5.37c.33,2.98.84,5.94,1.33,8.81.45,2.62.89,5.13,1.17,7.56-1.22,1.19-2.95,2.72-3.95,3.6-1.93,1.7-3.15,2.8-4,3.74-3.19,3.5-20.81,25.19-22.13,36.89-.52,4.65-.14,9.14.2,13.11.71,8.27.86,12.42-3.42,16.24-7.49,6.68-16.34,12.91-24.9,18.93-6.72,4.72-13.66,9.61-20.07,14.78-.55.45-1.11.81-1.75,1.23-2.28,1.5-5.41,3.56-7.73,8.77-3.66,8.24-1.41,13.9.58,18.89,4.19,10.56,14.25,23.5,25.34,27.8,1.92.76,4.04,1.17,5.92,1.53.52.1,1.19.23,1.75.36.07.11.14.21.21.31.85,1.25,1.9,2.81,3.37,4.19,7.13,6.73,15.16,10,24.54,10,6.55,0,12.76-1.57,18.76-3.09,4.12-1.04,8.05-2.04,11.76-2.46-.47,3.75-1.65,7.68-2.88,11.76-.97,3.22-1.97,6.55-2.69,10.02l-.18.83c-1.85,8.51-4.15,19.09,3.32,23.53,1.71,1.01,3.64,1.54,5.59,1.54.51,0,1-.03,1.48-.09-.76,3.74-1.68,7.56-2.58,11.32-1.85,7.76-3.77,15.79-4.48,23.28-.42,4.46-1,10.56,3.05,15.01,1.59,1.75,4.48,3.84,9.21,3.84,1.58,0,3.25-.23,5.08-.7,3.67-.92,9.43-3.65,14.18-6.09.21,1.25.63,2.49,1.35,3.72,1.11,1.89,3.82,5.08,9.5,5.3.19,0,.38.01.58.01,6.61,0,19.88-5.46,27.2-8.71,11.53-5.11,22.28-11.54,32.65-18.17.11,1.95.62,3.92,1.8,5.77l.34.54.42.48c2.13,2.41,5.23,3.74,8.73,3.74.44,0,.87-.02,1.23-.05,4.69-.41,10.33-3.25,19.49-9.81,8.5-6.12,15.97-13.48,23.2-20.6.26-.26.53-.52.79-.78l3.78,8.58,3.97.96c1.21.29,2.41.44,3.58.44,7.95,0,11.65-6.21,13.64-9.55l.23-.38c1.69-2.83,3.15-5.73,4.49-8.63,1.34,2.9,2.8,5.8,4.49,8.63l.24.4c1.98,3.33,5.68,9.52,13.63,9.52,1.17,0,2.37-.15,3.58-.44l3.97-.95,3.78-8.58c.28.28.57.56.85.84,7.2,7.1,14.66,14.43,23.15,20.53,9.14,6.56,14.78,9.4,19.4,9.8.42.04.85.06,1.29.06,3.47,0,6.55-1.3,8.69-3.67l.47-.52.38-.59c1.17-1.84,1.67-3.8,1.78-5.74,10.36,6.63,21.12,13.05,32.64,18.17,7.33,3.25,20.6,8.71,27.21,8.71.2,0,.39,0,.56-.01,5.7-.22,8.42-3.42,9.52-5.31.72-1.22,1.14-2.47,1.35-3.72,4.76,2.44,10.53,5.17,14.14,6.09,1.86.47,3.53.71,5.11.71,4.73,0,7.62-2.09,9.22-3.84,4.06-4.46,3.48-10.56,3.06-15-.71-7.49-2.62-15.5-4.48-23.25-.9-3.77-1.82-7.6-2.59-11.35.47.06.97.09,1.47.09,1.95,0,3.88-.54,5.6-1.55,7.44-4.42,5.15-15.01,3.3-23.52l-.18-.83c-.72-3.49-1.73-6.83-2.7-10.07-1.22-4.06-2.39-7.97-2.86-11.7,3.76.43,7.67,1.42,11.76,2.46,6,1.52,12.21,3.09,18.76,3.09h0c9.38,0,17.41-3.27,24.58-10.02,1.43-1.37,2.48-2.92,3.32-4.16.06-.09.14-.2.21-.31.56-.12,1.23-.25,1.75-.35,1.88-.36,4-.78,5.9-1.52,11.12-4.31,21.17-17.26,25.35-27.8,1.99-5,4.25-10.66.58-18.9ZM401.68,288.1s-2.61,3.85-2.65,3.89c-.03-.04-2.58-3.81-2.65-3.89.34-.12,4.96-.12,5.3,0ZM669.06,320.04c-3.35,8.45-12.01,19.8-20.69,23.17-2.69,1.04-7.41,1.32-9.34,2.46-1.46.86-2.8,3.95-4.54,5.59-16.87,15.91-34.18,2.49-52.11,2.01-1.23-.03-4.97.67-5.55,1.63-1.33,10.41,3.65,20.25,5.74,30.27.59,2.85,3.3,14.06.75,15.57-4.19,2.48-8.3-7.31-11.54-8.71-1.33-.58-1.46,3.03-1.44,3.65.49,15.35,7.53,33.78,8.97,49,.59,6.26.81,11.41-7.14,9.38-4.57-1.17-15.74-7.07-20.18-9.62-1.73-1-9.89-8.53-8.49-1.65.6,2.98,8.64,13.67,1.3,13.96-4.87.19-19.09-5.78-24.11-8.01-15.62-6.92-29.84-16.41-44.07-25.71-.63-.17-1.12.03-1.6.43-3.09,2.59,3.3,12.27.93,15.99-.74.84-2.02,1.01-3.07.92-4.19-.37-11.82-5.74-15.37-8.29-11.24-8.08-20.82-18.75-30.91-28.17l-.95-.03-6.63,15.05c-4.59,1.1-6.45-2.38-8.44-5.71-4.53-7.58-7.41-16.17-11.41-24.02-.05-.05-.11-.1-.16-.15-.05.05-.11.09-.16.15-4,7.85-6.87,16.44-11.41,24.02-1.99,3.33-3.85,6.81-8.44,5.71l-6.63-15.05-.95.03c-10.08,9.43-19.67,20.1-30.91,28.17-3.56,2.56-11.19,7.92-15.37,8.29-1.05.09-2.33-.08-3.07-.92-2.37-3.72,4.02-13.4.93-15.99-.48-.4-.97-.61-1.6-.43-14.22,9.3-28.45,18.8-44.07,25.71-5.02,2.22-19.24,8.2-24.11,8.01-7.34-.29.7-10.98,1.3-13.96,1.4-6.89-6.76.65-8.49,1.65-4.43,2.55-15.61,8.46-20.18,9.62-7.95,2.03-7.73-3.13-7.14-9.38,1.44-15.22,8.48-33.65,8.97-49,.02-.62-.11-4.22-1.44-3.65-3.24,1.4-7.36,11.19-11.54,8.71-2.55-1.51.15-12.72.75-15.57,2.09-10.02,7.07-19.85,5.74-30.27-.58-.97-4.32-1.66-5.55-1.63-17.93.48-35.23,13.9-52.11-2.01-1.74-1.64-3.08-4.73-4.54-5.59-1.93-1.14-6.66-1.42-9.34-2.46-8.68-3.37-17.34-14.72-20.69-23.17-1.87-4.72-2.89-7.57-.7-12.49,1.86-4.19,4.05-4.47,7.11-6.94,14.39-11.61,31.5-21.68,45.3-33.99,10.97-9.78,4.53-22.31,5.92-34.57.86-7.61,14.56-26.24,20.02-32.27,1.88-2.07,9.95-8.33,10.34-10.49-.39-6.54-2.09-13.22-2.8-19.67-1.25-11.26-2.95-24.83-3.38-35.98-.17-4.55-.47-12.97,6.41-12.07,4.13.54,10.19,9.66,12.89,12.73,7.28,8.28,15.93,16.72,22.21,25.87,4.68,6.82,2.34,6.49,1.99,13.49-.06,1.16.48,2.48.4,3.86-.16,3.05-1.04,6.09-.61,9.26.25.27,1.82-.4,2.1-.71.48-.52.92-2.3,1.12-3.1,4.44-18.48,2.93-38.43,8.06-56.6,1.88-6.66,5.94-12.87,12.91-7.35,12.11,9.6,26.18,30.84,35.74,43.55,9.76,12.98,20.65,30.9,33.48,40.18,4.21,3.05,8.84,5.36,13.16,8.2,1.76,1.15,14.07,8.23,9.14,10.32-2.5,1.06-8.8.11-11.87,1.02-.55.16-1.06.69-.93,1.31,5,4.91,11.46,7.85,17.13,12.11,2.22,1.67,12.4,9.92,12.99,11.77,2.42,7.61-7.46,3.8-10.74,3.93-4.9.2-2.96,2.16-.56,4.55,5.06,5.02,11.96,9.48,16.62,14.87,1.53,1.78,5.06,6.07,4.39,8.33-1.95,4.21-12.31-2.29-14.29.37-.36.41-.24.84-.16,1.32.18,1.17,8.58,11.71,10.06,13.6,1.88,2.4,4.19,5.17,6.59,8.11,2.4-2.94,4.71-5.71,6.59-8.11,1.48-1.89,9.88-12.43,10.06-13.6.07-.48.2-.91-.16-1.32-1.98-2.66-12.34,3.84-14.29-.37-.67-2.26,2.86-6.55,4.39-8.33,4.65-5.39,11.56-9.85,16.62-14.87,2.4-2.39,4.34-4.35-.56-4.55-3.29-.13-13.16,3.68-10.74-3.93.59-1.85,10.77-10.1,12.99-11.77,5.67-4.26,12.13-7.2,17.13-12.11.14-.61-.38-1.15-.93-1.31-3.07-.91-9.37.04-11.87-1.02-4.93-2.09,7.38-9.17,9.14-10.32,4.32-2.84,8.95-5.16,13.16-8.2,12.83-9.29,23.72-27.2,33.48-40.18,9.56-12.7,23.63-33.94,35.74-43.55,6.97-5.52,11.03.69,12.91,7.35,5.13,18.17,3.62,38.13,8.06,56.6.19.8.63,2.58,1.12,3.1.28.31,1.85.98,2.1.71.44-3.17-.44-6.22-.61-9.26-.07-1.38.46-2.7.4-3.86-.35-7-2.69-6.67,1.99-13.49,6.28-9.15,14.93-17.59,22.21-25.87,2.7-3.07,8.77-12.19,12.89-12.73,6.88-.9,6.58,7.52,6.41,12.07-.42,11.15-2.13,24.73-3.38,35.98-.72,6.44-2.41,13.13-2.8,19.67.39,2.15,8.47,8.42,10.34,10.49,5.47,6.03,19.16,24.66,20.02,32.27,1.39,12.26-5.05,24.79,5.91,34.57,13.8,12.3,30.91,22.37,45.3,33.99,3.07,2.48,5.25,2.75,7.11,6.94,2.19,4.92,1.17,7.77-.7,12.49Z" class="cls-1"></path><rect height=".55" width="1.12" y="334.67" x="641.8" class="cls-1"></rect><path d="M641.21,327.66c5.61,1.54,15.36-6.08,11.7-9.73-3.56-3.54-21.38,7.07-11.7,9.73Z" class="cls-1"></path><path d="M637.02,325.67v.56c.37-.19.37-.37,0-.56Z" class="cls-1"></path><path d="M627.58,286.74c-3.6-2.57-11.76-7.64-15.75-9-1.04-.35-1.99-.91-2.97.09-.47.77-.32,1.51.04,2.28.66,1.42,13.27,8.17,15.65,9.66,1.15.72,1.85,1.92,3,2.63,1.05.65,7.59,4.37,8.06,4.03-.05-.65.56-1.24.45-1.88-.22-1.25-6.98-6.74-8.47-7.8Z" class="cls-1"></path><path d="M541.12,366.74c-3.39-.59-3.98,2.78-4.31,5.48-1.28,10.17.13,19.44,3.37,28.93.75,2.21,4.52,9.09,7.38,8.28l.88-1.33-6.15-28.17-1.16-13.18Z" class="cls-1"></path><path d="M536.93,428.57v.56c.37-.19.37-.38,0-.56Z" class="cls-1"></path><rect height=".55" width="1.12" y="326.24" x="591.19" class="cls-1"></rect><path d="M534.11,325.11v.56c.37-.19.37-.37,0-.56Z" class="cls-1"></path><rect height=".55" width="1.12" y="353.23" x="543.4" class="cls-1"></rect><path d="M536.65,436.44c-.15,1.05,0,1.95,1.11,2.25.15-1.05,0-1.95-1.11-2.25Z" class="cls-1"></path><path d="M563.92,378.53v.56c.37-.19.37-.37,0-.56Z" class="cls-1"></path><path d="M591.51,275.66c1.16-1.61-1.79-10.59-1.99-13.26-.16-2.06.22-3.99.34-6.02.02-.33-.02-.61-.08-.94-.15-.81-.07-1.67-.57-2.37-.47-.65-1.05-1.22-1.53-1.87-.38-.51-.62-.85-1.14-1.24-1.45-1.09-3-1.74-4.83-1.79-1.41-.04-2.55.32-3.73,1.08-1.04.66-2.2,1.02-3.25,1.65-.69.41-1.43.77-2.14,1.1-.75.35-1.75.3-2.55.5-3.84.96-9.64,2.97-12.38,5.89-3.87,4.15,1.34,6.33,6.01,4.04,4.49-2.21,17.78-13.2,19.09-1.71.73,6.41-.17,13.43-8.15,13.26-5.64-.12-4.21-4.05-5.7-4.5-1.82.46-7.6.82-6.89,3.5,7.26,9,19.89,4.14,29.49,2.68Z" class="cls-1"></path><path d="M542.33,308.97c.5,2.01,2.84,1.53,4.29,1.08,1.67-.52,10.58-5.39,9.15-7.43-2.71-1.52-14.16,3.44-13.44,6.35Z" class="cls-1"></path><rect height=".55" width="1.12" y="308.81" x="561.39" class="cls-1"></rect><path d="M558.86,413.95v.56c.37-.19.37-.37,0-.56Z" class="cls-1"></path><path d="M519.79,305.72c-1.19,1.56-2.55,3.23-2.26,5.33.98.1,1.88,0,2.82-.26,4.18-1.17,18.65-9.95,21.88-12.98,1.41-1.32,2.94-3.57-.07-3.5-7.1.17-18.04,5.73-22.37,11.41Z" class="cls-1"></path><path d="M473.39,409.45v.56c.37-.19.37-.37,0-.56Z" class="cls-1"></path><path d="M472.26,403.27v.56c.37-.19.37-.38,0-.56Z" class="cls-1"></path><rect height=".55" width="1.12" y="340.86" x="474.23" class="cls-1"></rect><rect height="1.12" width=".55" y="319.49" x="452.87" class="cls-1"></rect><rect height=".55" width="1.12" y="310.49" x="469.17" class="cls-1"></rect><path d="M475.63,403.27v.56c.37-.19.37-.38,0-.56Z" class="cls-1"></path><path d="M461.17,350.57c-4.93,7.93-10.84,24.04-9.4,33.27.25,1.6,1.51,3.99,2.47,1.43,3.34-8.91,6.68-17.81,9.88-26.69.79-2.18,4.21-12.27,3.31-13.73-1.35-2.18-5.55,4.58-6.26,5.72Z" class="cls-1"></path><path d="M466.35,280.4c-3.64,3.18-15.42,16.91-16.61,21.08-1.54,5.38,4.66,1.24,6.51-.25,4.44-3.57,9.5-11.32,14.03-15.77,3.13-3.08,10.37-8.05,12.41-11.21.45-.69.7-1.12.53-1.99-6-.21-12.49,4.31-16.87,8.14Z" class="cls-1"></path><path d="M566.17,178.35v.56c.36-.19.36-.37,0-.56Z" class="cls-1"></path><rect height="1.12" width="1.12" y="322.3" x="479.29" class="cls-1"></rect><polygon points="479.29 397.64 480.41 397.64 480.14 396.52 479.29 397.64" class="cls-1"></polygon><path d="M604.97,334.67v.56c.37-.19.37-.37,0-.56Z" class="cls-1"></path><path d="M441.9,266.07v.56c.37-.19.37-.37,0-.56Z" class="cls-1"></path><path d="M443.58,232.33v.56c.36-.19.36-.38,0-.56Z" class="cls-1"></path><path d="M439.65,295.31v.56c.37-.19.37-.37,0-.56Z" class="cls-1"></path><path d="M478.16,233.74c-.42-2.01-11.11-.68-13.32,1.01l-4.67,4.59c6.2,3.92,14.16-.43,17.99-5.61Z" class="cls-1"></path><path d="M459.26,266.56c1.89-.96,5.73-4.99,8.04-6.58,2.29-1.58,13.64-7.31,13.12-9.93-.47-2.36-7.86.1-9.38.73-4.63,1.91-7.05,4.48-10.59,7.41-.92.76-10.64,8.35-9.27,9.56.41.36,7.11-.69,8.08-1.19Z" class="cls-1"></path><path d="M430.37,316.11c-2.5-2.45-8.87,8.33-9.85,10.11-2.25,4.07-6.34,11.68-3.36,15.74,1.93-2.73,4.2-5.86,5.92-8.69,1.27-2.09,6.37-10.62,6.85-12.26.51-1.73.56-3.13.44-4.91Z" class="cls-1"></path><path d="M438.22,335.49c-6.34,6.28-14.49,24.98-13.5,33.79.1.85.05,1.39.87,1.93,1.12-.03,5.78-11.74,6.72-13.51,2.97-5.57,6.07-10.38,9.01-16.29,1.59-3.2,5.12-6.07,2.26-10.1-1.5,1.49-3.92,2.75-5.37,4.18Z" class="cls-1"></path><path d="M447.52,348.16v.56c.37-.19.37-.37,0-.56Z" class="cls-1"></path><rect height=".55" width="1.12" y="394.84" x="433.75" class="cls-1"></rect><path d="M461.58,413.95v.56c.37-.19.37-.37,0-.56Z" class="cls-1"></path><rect height="1.12" width=".55" y="293.62" x="429.25" class="cls-1"></rect><rect height=".55" width="1.12" y="239.08" x="591.75" class="cls-1"></rect><rect transform="translate(-34.89 459.72) rotate(-45)" height="1.18" width="1.18" y="271.38" x="536.9" class="cls-1"></rect><path d="M534.68,249.2v.56c.37-.19.37-.37,0-.56Z" class="cls-1"></path><path d="M535.8,280.12v.56c.36-.19.36-.37,0-.56Z" class="cls-1"></path><path d="M476.76,192.4v.56c.37-.19.37-.37,0-.56Z" class="cls-1"></path><rect height=".55" width="1.12" y="247.52" x="543.4" class="cls-1"></rect><path d="M521.18,293.62v.56c.36-.19.36-.37,0-.56Z" class="cls-1"></path><path d="M534.11,208.15v.56c.37-.19.37-.37,0-.56Z" class="cls-1"></path><path d="M527.37,270v.56c.37-.19.37-.37,0-.56Z" class="cls-1"></path><path d="M498.99,299.54c-1.55,1.98-7.08,9.11-.6,6.71,3-1.11,9.52-7.97,13.35-10.27,7.57-4.56,17.05-5.2,22.65-12.76-1.23-1.45-3.5-.84-5.17-.68-10.66,1.02-23.7,8.67-30.23,17Z" class="cls-1"></path><rect height=".55" width="1.12" y="162.04" x="564.2" class="cls-1"></rect><path d="M531.3,193.53v.56c.36-.19.36-.37,0-.56Z" class="cls-1"></path><path d="M534.11,261.57v.56c.37-.19.37-.38,0-.56Z" class="cls-1"></path><path d="M547.05,285.18v.56c.37-.19.37-.37,0-.56Z" class="cls-1"></path><rect height=".55" width="1.12" y="241.33" x="561.95" class="cls-1"></rect><path d="M511.06,348.73c.37-.19.37-.37,0-.56v.56Z" class="cls-1"></path><path d="M576.01,203.92c5.19,4.55,9.39,11.49,14.89,16.03.63.52.91,1.36,1.97,1.12.72-.75-5.34-8.68-6.2-9.82-5.37-7.18-10.69-12.81-18.03-17.96-1.58-1.11-7.69-5.28-9.13-5.24-1.93.05-3.22.86-1.79,2.67,4.42,5.58,13.06,8.62,18.28,13.2Z" class="cls-1"></path><polygon points="562.79 145.73 563.07 144.05 561.95 144.05 561.95 144.88 562.79 145.73" class="cls-1"></polygon><path d="M573.48,212.65c.37-.19.37-.37,0-.56v.56Z" class="cls-1"></path><path d="M561.67,223.89c.37-.19.37-.37,0-.56v.56Z" class="cls-1"></path><path d="M549.3,201.96v.56c.37-.19.37-.37,0-.56Z" class="cls-1"></path><rect height="1.12" width=".55" y="185.1" x="554.64" class="cls-1"></rect><path d="M561.11,214.33c.37-.19.37-.37,0-.56v.56Z" class="cls-1"></path><path d="M113.12,624.6c.86,9.37-3.08,17.57-11.73,24.38-3.23,2.54-7.84,4.4-12.32,4.96-5.77.73-11.9,1.08-18.62,1.08-1.78,0-3.62-.03-5.49-.08-6.33-.17-11.32-6.29-11.35-13.93-.02-4.5.02-9.08.05-13.51.03-4.45.07-9.05.05-13.57,0-1.93-.13-3.89-.24-5.79-.12-2.06-.25-4.18-.24-6.28.06-10.91.26-22.07.45-31.92.02-1.19.19-2.38.35-3.54.07-.54.15-1.08.21-1.62.75-6.64,4.5-9.99,12.17-10.87,2.06-.24,4.19-.17,6.24-.11.93.03,1.89.06,2.83.06,6.3-.04,13.68.37,20.71,3.69,11.55,5.45,17.47,17.96,14.4,30.42-.31,1.26-.66,2.34-1.06,3.32-2.6,6.33-2.39,12.93.66,20.78,1.51,3.88,2.51,8.21,2.91,12.54h0ZM87.6,638.03c5.92-1.67,10.42-8.56,9.81-15.04-.46-4.93-4.36-10.88-13.91-12.8-3.69-.74-7.06-.14-9.75,1.76-2.7,1.9-4.5,5-5.05,8.74-.12.84-.09,1.73-.06,2.58.02.41-.04,2.29,0,2.71.08,1.05.17,2.14.32,3.19.96,6.68,6.09,10.69,12.77,9.99,1.97-.21,3.95-.59,5.87-1.13h0ZM69.05,581.71c-.04,6.74,4.99,12.33,11.21,12.46,4.19.08,8.52-1.64,11.56-4.63,2.25-2.21,3.48-4.82,3.47-7.36-.03-6.65-6.44-12.35-14-12.44-.07,0-.15,0-.22,0-3.62,0-6.63,1.08-8.72,3.14-2.13,2.09-3.27,5.15-3.29,8.83Z" class="cls-1"></path><path d="M202.56,611.84c-.51,5.85-1.04,11.89-1.94,17.79-1.49,9.8-6.94,17.71-15.76,22.86-4.77,2.79-9.96,4.2-15.3,4.2-2.84,0-5.72-.4-8.61-1.2-12.96-3.58-20.93-12.17-23.71-25.53-2.47-11.89-2.9-24.84-1.35-40.77.65-6.63,1.93-14.27,6.56-20.76,4.52-6.33,9.23-10.07,15.26-12.14,6.4-2.19,12.17-2.66,18.16-1.48,9.92,1.95,17.09,7.61,21.94,17.32,2.71,5.43,4.19,11.33,4.4,17.51.11,3.28.08,6.62.06,9.85-.01,1.39.52,9.77.29,12.35ZM188.28,605.37c-.15-1.82-.24-3.7-.33-5.7-.24-5.25-.52-11.21-2.12-16.95-2.08-7.45-9.45-13.06-16.85-13.06-.46,0-.91.02-1.37.07-8.51.82-15.34,7.98-16.59,17.41-1.58,11.86-1.67,23.57-.27,34.78.87,6.93,4.19,12.96,8.89,16.11,3.97,2.66,8.86,3.31,14.15,1.87,5.47-1.48,9.29-5.19,11.66-11.33,2.59-6.72,2.69-13.92,2.81-22.25v-.97Z" class="cls-1"></path><path d="M268.76,568.95c-1.85,1.37-3.72,2.32-5.42,2.73-9.33,2.27-10.61,9.86-10.68,16.22-.09,8.65-.06,18.85-.04,27.36.02,5.21.03,10.59.02,15.89v.11c0,4.36-.02,8.87-.41,13.27-.21,2.37-.89,4.96-1.98,7.51-.84,1.97-2.91,2.88-4.98,2.88-.68,0-1.36-.1-1.99-.29-2.43-.74-5.48-3.56-5.47-6.68v-.33c.02-.73-.23-6.64-.21-9.66v-.79c.02-5.86.05-11.72.08-17.58.04-9.22.09-20.15.08-29.53,0-2.26-.23-4.7-.72-7.68-.73-4.42-3.28-7.62-7.58-9.52-.72-.32-1.44-.63-2.16-.94-1.5-.65-3.05-1.32-4.55-2.04-2.92-1.4-4.43-3.46-4.48-6.14-.05-2.64,1.63-4.64,4.83-5.79,2.42-.86,5.2-1.39,8.04-1.54,3.34-.17,6.74-.13,10.03-.1,1.41.02,2.81.03,4.22.03,1.4,0,2.83-.02,4.21-.05,3.29-.05,6.7-.11,10.04.14,3.45.26,6.46,1.05,8.69,2.27,2.03,1.11,3.22,2.79,3.35,4.71.14,2.02-.93,4.03-2.94,5.52Z" class="cls-1"></path><path d="M335.57,568.95c-1.85,1.37-3.72,2.32-5.42,2.73-9.33,2.27-10.61,9.86-10.68,16.22-.09,8.65-.06,18.85-.04,27.36.02,5.21.03,10.59.02,15.89v.11c0,4.36-.02,8.87-.41,13.27-.21,2.37-.89,4.96-1.98,7.51-.84,1.97-2.91,2.88-4.98,2.88-.68,0-1.36-.1-1.99-.29-2.43-.74-5.48-3.56-5.47-6.68v-.33c.02-.73-.23-6.64-.21-9.66v-.79c.02-5.86.05-11.72.08-17.58.04-9.22.09-20.15.08-29.53,0-2.26-.23-4.7-.72-7.68-.73-4.42-3.28-7.62-7.58-9.52-.72-.32-1.44-.63-2.16-.94-1.5-.65-3.05-1.32-4.55-2.04-2.92-1.4-4.43-3.46-4.48-6.14-.05-2.64,1.63-4.64,4.83-5.79,2.42-.86,5.2-1.39,8.04-1.54,3.34-.17,6.74-.13,10.03-.1,1.41.02,2.81.03,4.22.03,1.4,0,2.83-.02,4.21-.05,3.29-.05,6.7-.11,10.04.14,3.45.26,6.46,1.05,8.69,2.27,2.03,1.11,3.22,2.79,3.35,4.71.14,2.02-.93,4.03-2.94,5.52Z" class="cls-1"></path><path d="M407.52,646.22c.3,2.21-.69,4.4-2.72,6.02-2.44,1.94-4.92,2.83-7.91,2.83-.42,0-.86-.02-1.3-.05-4.39-.35-8.89-.23-13.25-.12-2.01.05-4.08.11-6.12.11-2.75.01-6.29-.13-9.35-1.29-3.13-1.19-5.42-3.27-7.01-6.38-.68-1.33-1.5-3.35-1.53-5.38-.11-6.38-.1-11.21-.08-17.48,0-2.18.01-4.37.01-6.56h-.1v-.22c0-2.37-.03-4.79-.05-7.12-.07-5.73-.13-10.42.2-16.23.14-2.38.02-4.75-.09-7.04-.06-1.24-.12-2.51-.15-3.77-.05-2.8-.04-5.64-.04-8.39,0-.94,0-1.89,0-2.83,0-3.96.92-7.34,2.82-10.33,2.96-4.67,7.81-5.54,12.15-5.77,7.81-.41,15.69-.21,22.46,0,2.72.09,5.41.76,7.57,1.89,1.71.9,3.38,2.87,4.06,4.79.68,1.92-.29,3.73-2.95,5.54-2.58,1.75-5.26,2.62-8.19,2.67-.61.01-1.22.01-1.83.02-3.88.03-7.89.06-11.76,1.4-4.21,1.45-6.51,3.59-7.68,7.15-1.57,4.74-1.13,9.22,1.24,12.61,2.27,3.25,6.05,3.89,10.64,4.04,3.78.12,7.51.58,10.33.97,1.8.25,3.53.76,5,1.48,2.27,1.12,3.65,2.8,3.89,4.73.24,1.88-.65,3.79-2.48,5.37-1.37,1.18-3.42,2.08-5.48,2.43-4.14.7-8.62,1.2-13.29,1.5-3.97.25-6.96,2-8.88,5.2-1.61,2.67-2.36,4.64-2.11,8.53.5,7.89,3.7,11.27,11.81,12.46,3.06.45,6.21.68,9.25.91,1.74.13,3.54.26,5.31.43,1.32.13,2.47.4,3.41.8,2.38,1.02,3.92,2.87,4.22,5.08h0Z" class="cls-1"></path><path d="M492.22,571.18c.22,7.94.18,20.18.14,28-.02,3.13-.19,14.77-.19,17.35,0,7.29,0,14.83-.02,22.25,0,2.08-.06,4.31-.42,6.48-.9,5.47-3.34,8.24-7.94,8.97-.75.12-1.49.18-2.21.18-4.05,0-7.44-1.87-9.52-5.32-2.08-3.45-3.72-7.13-5.5-11.23-1.56-3.6-3.1-7.28-4.59-10.83-1.84-4.39-3.74-8.93-5.7-13.36-.76-1.71-2.17-3.26-3.59-4.67-.68-.68-1.41-1.01-2.12-.96-.71.06-1.4.51-1.98,1.32-1.75,2.41-3.21,4.66-3.26,7.66-.11,6.43-.29,17.04-.75,24.57-.18,2.89-.77,5.94-1.73,8.8-1.05,3.14-3.12,4.61-5.69,4.03-3.06-.69-5.1-2.76-5.62-5.69-.66-3.81-.98-6.95-1-9.89-.14-20.06-.19-41.57-.14-59.57.01-4.51.31-10.68.89-15.58.21-1.8,1.07-3.82,2.36-5.55.89-1.19,2.71-2.43,4.1-2.39,3.02.12,6.47.37,9.19,1.76,2.48,1.27,4.41,3.99,5.39,6.12,1.92,4.17,3.65,9.9,5.32,14.09,1.11,2.76,2.25,5.61,3.43,8.39,1.29,3.04,2.77,6.06,4.2,8.99.5,1.03,1,2.05,1.5,3.09.31.65.71,1.25,1.14,1.75.16.18.32.37.47.55,1.16,1.38,2.27,2.69,4.23,2.28,2.53-.53,3.29-2.82,3.49-4.65.45-4.15.79-8.37,1.13-12.46.17-2.13.35-8.41.54-10.54.1-1.1.19-2.19.28-3.29.31-3.69.64-7.51,1.13-11.24.36-2.71,2.28-4.5,5.15-4.8,2.77-.29,4.85,1.06,5.56,3.61,1.08,3.83,2.2,7.8,2.31,11.8h0Z" class="cls-1"></path><path d="M578.11,624.6c.86,9.37-3.08,17.57-11.73,24.38-3.23,2.54-7.84,4.4-12.32,4.96-5.77.73-11.9,1.08-18.62,1.08-1.78,0-3.62-.03-5.49-.08-6.33-.17-11.32-6.29-11.35-13.93-.02-4.5.02-9.08.05-13.51.03-4.45.07-9.05.05-13.57,0-1.93-.13-3.89-.24-5.79-.12-2.06-.25-4.18-.24-6.28.06-10.91.26-22.07.45-31.92.02-1.19.19-2.38.35-3.54.07-.54.15-1.08.21-1.62.75-6.64,4.5-9.99,12.17-10.87,2.06-.24,4.19-.17,6.24-.11.93.03,1.89.06,2.83.06,6.3-.04,13.68.37,20.71,3.69,11.55,5.45,17.47,17.96,14.4,30.42-.31,1.26-.66,2.34-1.06,3.32-2.6,6.33-2.39,12.93.66,20.78,1.51,3.88,2.51,8.21,2.91,12.54h0ZM552.6,638.03c5.92-1.67,10.42-8.56,9.81-15.04-.46-4.93-4.36-10.88-13.91-12.8-3.69-.74-7.06-.14-9.75,1.76-2.7,1.9-4.5,5-5.05,8.74-.12.84-.09,1.73-.06,2.58.02.41-.04,2.29,0,2.71.08,1.05.17,2.14.32,3.19.96,6.68,6.09,10.69,12.77,9.99,1.97-.21,3.95-.59,5.87-1.13h0ZM534.04,581.71c-.04,6.74,4.99,12.33,11.21,12.46,4.19.08,8.52-1.64,11.56-4.63,2.25-2.21,3.48-4.82,3.47-7.36-.03-6.65-6.44-12.35-14-12.44-.07,0-.15,0-.22,0-3.62,0-6.63,1.08-8.72,3.14-2.13,2.09-3.27,5.15-3.29,8.83Z" class="cls-1"></path><path d="M667.55,611.84c-.51,5.85-1.04,11.89-1.94,17.79-1.49,9.8-6.94,17.71-15.76,22.86-4.77,2.79-9.96,4.2-15.3,4.2-2.84,0-5.72-.4-8.61-1.2-12.96-3.58-20.93-12.17-23.71-25.53-2.47-11.89-2.9-24.84-1.35-40.77.65-6.63,1.93-14.27,6.56-20.76,4.52-6.33,9.23-10.07,15.26-12.14,6.4-2.19,12.17-2.66,18.16-1.48,9.92,1.95,17.09,7.61,21.94,17.32,2.71,5.43,4.19,11.33,4.4,17.51.11,3.28.08,6.62.06,9.85-.01,1.39.52,9.77.29,12.35ZM653.27,605.37c-.15-1.82-.24-3.7-.33-5.7-.24-5.25-.52-11.21-2.12-16.95-2.08-7.45-9.45-13.06-16.85-13.06-.46,0-.91.02-1.37.07-8.51.82-15.34,7.98-16.59,17.41-1.58,11.86-1.67,23.57-.27,34.78.87,6.93,4.19,12.96,8.89,16.11,3.97,2.66,8.86,3.31,14.15,1.87,5.47-1.48,9.29-5.19,11.66-11.33,2.59-6.72,2.69-13.92,2.81-22.25v-.97Z" class="cls-1"></path><path d="M744.18,645.96c1.25,3.36.64,5.75-1.9,7.53-1.23.86-2.56,1.29-3.88,1.29-1.67,0-3.31-.68-4.66-2.03-1.93-1.93-3.96-5.27-5.61-7.79-1.34-2.05-2.54-5.89-3.7-8-.54-.99-1.1-2.01-1.67-3-1.87-3.27-4.46-5.27-7.11-5.47-2.46-.19-4.9,1.14-7.05,3.84-1.32,1.65-2.92,6.12-3.84,8.02-.49,1-6.57,10.74-8.3,12.29-2.39,2.15-5.83,2.77-8.17,1.48-2.44-1.35-3.4-4.06-2.63-7.44.51-2.28,1.41-4.72,2.8-7.69,2.31-4.9,4.95-12.61,7.28-17.4,1.86-3.84,3.78-7.81,5.65-11.72,2.22-4.65,2.21-9.97,0-15.37-1.94-4.73-4.27-10.22-6.52-14.73-.96-1.93-2.28-4.76-3.24-6.74-.32-.66-.65-1.31-.99-1.97-.77-1.5-1.56-3.06-2.15-4.67-.53-1.44-.74-3.16-.58-4.72.27-2.68,1.43-4.65,3.19-5.4,1.66-.71,3.64-.26,5.58,1.25,2.25,1.76,4.08,4.1,5.85,6.37.43.55.86,1.09,1.29,1.63.81,1.01,1.54,2.12,2.24,3.18.77,1.18,1.9,3.23,2.82,4.32,1.82,2.17,3.91,3.33,6.03,3.37,2.13.03,4.72-2.01,6.64-4.12,1.2-1.32,2.17-2.9,3.11-4.43.17-.29.35-.57.53-.85,2.61-4.19,5.06-7.15,7.95-9.61,1.58-1.34,3.69-1.78,5.49-1.15,1.87.66,3.15,2.32,3.61,4.67.33,1.67.02,3.8-.78,5.55-4.12,8.92-8.05,17.84-11.37,24.26-3.73,7.2-4.13,13.77-1.21,20.08,2.13,4.61,4.4,9.25,6.59,13.74,1.53,3.13,3.11,8.01,4.63,11.21,1.56,3.27,3.04,7.35,4.1,10.22h0Z" class="cls-1"></path></svg>